HIERARCHY
ROOT Hips
{
    OFFSET   0.000000   0.000000   0.000000
    CHANNELS 6 Xposition Yposition Zposition Zrotation Xrotation Yrotation
    JOINT Chest
    {
        OFFSET   0.000000   8.007230   0.000000
        CHANNELS 3 Zrotation Xrotation Yrotation
        JOINT Chest2
        {
            OFFSET   0.000000  22.077100   0.000000
            CHANNELS 3 Zrotation Xrotation Yrotation
            JOINT Neck
            {
                OFFSET   0.000000  23.254800  -0.000021
                CHANNELS 3 Zrotation Xrotation Yrotation
                JOINT Head
                {
                    OFFSET   0.000000  14.370000   1.956610
                    CHANNELS 3 Zrotation Xrotation Yrotation
                    End Site
                    {
                        OFFSET   0.000000  19.566000   0.000000
                    }
                }
            }
            JOINT LeftCollar
            {
                OFFSET   3.911900  19.017000  -0.467063
                CHANNELS 3 Zrotation Xrotation Yrotation
                JOINT LeftShoulder
                {
                    OFFSET  10.383700   0.000000   0.000000
                    CHANNELS 3 Zrotation Xrotation Yrotation
                    JOINT LeftElbow
                    {
                        OFFSET  26.662100   0.001529   0.000325
                        CHANNELS 3 Zrotation Xrotation Yrotation
                        JOINT LeftWrist
                        {
                            OFFSET  28.869000  -0.000011  -0.000096
                            CHANNELS 3 Zrotation Xrotation Yrotation
                            JOINT LeftFinger0
                            {
                                OFFSET   2.044650  -2.323460   3.252850
                                CHANNELS 3 Zrotation Xrotation Yrotation
                                JOINT LeftFinger01
                                {
                                    OFFSET   3.088130   0.000000   0.000000
                                    CHANNELS 3 Zrotation Xrotation Yrotation
                                    JOINT LeftFinger02
                                    {
                                        OFFSET   2.639460   0.000000   0.000000
                                        CHANNELS 3 Zrotation Xrotation Yrotation
                                        End Site
                                        {
                                            OFFSET   2.582190   0.000000   0.000000
                                        }
                                    }
                                }
                            }
                            JOINT LeftFinger1
                            {
                                OFFSET   8.364480   0.000000   3.252850
                                CHANNELS 3 Zrotation Xrotation Yrotation
                                JOINT LeftFinger11
                                {
                                    OFFSET   4.646930   0.000000   0.000000
                                    CHANNELS 3 Zrotation Xrotation Yrotation
                                    JOINT LeftFinger12
                                    {
                                        OFFSET   2.323460   0.000000   0.000000
                                        CHANNELS 3 Zrotation Xrotation Yrotation
                                        End Site
                                        {
                                            OFFSET   2.273050   0.000000   0.000000
                                        }
                                    }
                                }
                            }
                            JOINT LeftFinger2
                            {
                                OFFSET   8.364480   0.000016   1.078090
                                CHANNELS 3 Zrotation Xrotation Yrotation
                                JOINT LeftFinger21
                                {
                                    OFFSET   5.111620   0.000000   0.000000
                                    CHANNELS 3 Zrotation Xrotation Yrotation
                                    JOINT LeftFinger22
                                    {
                                        OFFSET   2.788160   0.000017   0.000000
                                        CHANNELS 3 Zrotation Xrotation Yrotation
                                        End Site
                                        {
                                            OFFSET   2.727660   0.000000   0.000000
                                        }
                                    }
                                }
                            }
                            JOINT LeftFinger3
                            {
                                OFFSET   7.899780   0.000015  -1.078090
                                CHANNELS 3 Zrotation Xrotation Yrotation
                                JOINT LeftFinger31
                                {
                                    OFFSET   4.646920   0.000000   0.000000
                                    CHANNELS 3 Zrotation Xrotation Yrotation
                                    JOINT LeftFinger32
                                    {
                                        OFFSET   2.323470   0.000000   0.000000
                                        CHANNELS 3 Zrotation Xrotation Yrotation
                                        End Site
                                        {
                                            OFFSET   2.273050   0.000000   0.000000
                                        }
                                    }
                                }
                            }
                            JOINT LeftFinger4
                            {
                                OFFSET   7.435090   0.000000  -3.252850
                                CHANNELS 3 Zrotation Xrotation Yrotation
                                JOINT LeftFinger41
                                {
                                    OFFSET   3.717550   0.000000   0.000000
                                    CHANNELS 3 Zrotation Xrotation Yrotation
                                    JOINT LeftFinger42
                                    {
                                        OFFSET   1.858760   0.000000   0.000000
                                        CHANNELS 3 Zrotation Xrotation Yrotation
                                        End Site
                                        {
                                            OFFSET   1.818440   0.000000   0.000000
                                        }
                                    }
                                }
                            }
                        }
                    }
                }
            }
            JOINT RightCollar
            {
                OFFSET  -3.911900  19.017000  -0.467062
                CHANNELS 3 Zrotation Xrotation Yrotation
                JOINT RightShoulder
                {
                    OFFSET -10.383700   0.000015   0.000000
                    CHANNELS 3 Zrotation Xrotation Yrotation
                    JOINT RightElbow
                    {
                        OFFSET -26.662100   0.001341   0.000385
                        CHANNELS 3 Zrotation Xrotation Yrotation
                        JOINT RightWrist
                        {
                            OFFSET -28.869000   0.000025  -0.000080
                            CHANNELS 3 Zrotation Xrotation Yrotation
                            JOINT RightFinger0
                            {
                                OFFSET  -2.044650  -2.323490   3.252850
                                CHANNELS 3 Zrotation Xrotation Yrotation
                                JOINT RightFinger01
                                {
                                    OFFSET  -3.088130   0.000000   0.000000
                                    CHANNELS 3 Zrotation Xrotation Yrotation
                                    JOINT RightFinger02
                                    {
                                        OFFSET  -2.639460   0.000000   0.000000
                                        CHANNELS 3 Zrotation Xrotation Yrotation
                                        End Site
                                        {
                                            OFFSET  -2.582190   0.000000   0.000000
                                        }
                                    }
                                }
                            }
                            JOINT RightFinger1
                            {
                                OFFSET  -8.364480   0.000000   3.252850
                                CHANNELS 3 Zrotation Xrotation Yrotation
                                JOINT RightFinger11
                                {
                                    OFFSET  -4.646930   0.000000   0.000000
                                    CHANNELS 3 Zrotation Xrotation Yrotation
                                    JOINT RightFinger12
                                    {
                                        OFFSET  -2.323470   0.000000   0.000000
                                        CHANNELS 3 Zrotation Xrotation Yrotation
                                        End Site
                                        {
                                            OFFSET  -2.273050   0.000000   0.000000
                                        }
                                    }
                                }
                            }
                            JOINT RightFinger2
                            {
                                OFFSET  -8.364480   0.000000   1.078090
                                CHANNELS 3 Zrotation Xrotation Yrotation
                                JOINT RightFinger21
                                {
                                    OFFSET  -5.111610   0.000000   0.000000
                                    CHANNELS 3 Zrotation Xrotation Yrotation
                                    JOINT RightFinger22
                                    {
                                        OFFSET  -2.788160   0.000000   0.000000
                                        CHANNELS 3 Zrotation Xrotation Yrotation
                                        End Site
                                        {
                                            OFFSET  -2.727660   0.000000   0.000000
                                        }
                                    }
                                }
                            }
                            JOINT RightFinger3
                            {
                                OFFSET  -7.899780   0.000000  -1.078090
                                CHANNELS 3 Zrotation Xrotation Yrotation
                                JOINT RightFinger31
                                {
                                    OFFSET  -4.646920   0.000000   0.000000
                                    CHANNELS 3 Zrotation Xrotation Yrotation
                                    JOINT RightFinger32
                                    {
                                        OFFSET  -2.323470   0.000000   0.000000
                                        CHANNELS 3 Zrotation Xrotation Yrotation
                                        End Site
                                        {
                                            OFFSET  -2.273050   0.000000   0.000000
                                        }
                                    }
                                }
                            }
                            JOINT RightFinger4
                            {
                                OFFSET  -7.435090   0.000000  -3.252850
                                CHANNELS 3 Zrotation Xrotation Yrotation
                                JOINT RightFinger41
                                {
                                    OFFSET  -3.717550   0.000000   0.000000
                                    CHANNELS 3 Zrotation Xrotation Yrotation
                                    JOINT RightFinger42
                                    {
                                        OFFSET  -1.858770   0.000000   0.000000
                                        CHANNELS 3 Zrotation Xrotation Yrotation
                                        End Site
                                        {
                                            OFFSET  -1.818440   0.000000   0.000000
                                        }
                                    }
                                }
                            }
                        }
                    }
                }
            }
        }
    }
    JOINT LeftHip
    {
        OFFSET   9.783010   0.000000   0.000000
        CHANNELS 3 Zrotation Xrotation Yrotation
        JOINT LeftKnee
        {
            OFFSET   0.000070 -41.789100   0.000028
            CHANNELS 3 Zrotation Xrotation Yrotation
            JOINT LeftAnkle
            {
                OFFSET   0.000087 -41.133200  -0.000100
                CHANNELS 3 Zrotation Xrotation Yrotation
                JOINT LeftToe
                {
                    OFFSET   0.000000  -6.358960  14.674500
                    CHANNELS 3 Zrotation Xrotation Yrotation
                    End Site
                    {
                        OFFSET   0.000000   0.000000   3.913200
                    }
                }
            }
        }
    }
    JOINT RightHip
    {
        OFFSET  -9.783020   0.000000   0.000000
        CHANNELS 3 Zrotation Xrotation Yrotation
        JOINT RightKnee
        {
            OFFSET   0.000044 -41.789100  -0.000870
            CHANNELS 3 Zrotation Xrotation Yrotation
            JOINT RightAnkle
            {
                OFFSET  -0.000090 -41.133200  -0.000245
                CHANNELS 3 Zrotation Xrotation Yrotation
                JOINT RightToe
                {
                    OFFSET   0.000000  -6.358960  14.674500
                    CHANNELS 3 Zrotation Xrotation Yrotation
                    End Site
                    {
                        OFFSET   0.000000   0.000000   3.913200
                    }
                }
            }
        }
    }
}
MOTION
Frames: 4
Frame Time:   0.016667
  0.242425  89.556100   1.695300  -4.238600 -17.533900  -2.512940   1.364150   9.256860   0.382312   2.719120  18.520200   0.548763   3.135300   2.533370  -0.138921   5.184430   5.090780   2.437290  -7.344940  -8.373250  -3.233540 -31.281900  19.199000 -44.207500  43.245000  -1.728140 -84.659400  45.980800  22.902600 -48.851800  52.486500  54.971300 -99.387400 -42.828700  -0.006535   0.000647 -17.236200  -0.003629  -0.000288  -1.889030   0.709000 -20.753800  -1.650400  -0.000110  -0.004106  -1.155280  -0.002044  -0.002321 -59.301600   1.816000  -1.060690 -59.313300  -0.004634   0.000603 -44.485000   0.000278  -0.001373 -55.738200   1.228010  -0.810456 -55.739200  -0.011362   0.006985 -41.805100  -0.009755   0.000284 -61.415200  -8.800750   4.771910 -92.673300  -0.009050   0.003669 -61.720300  -0.000918  -0.005515   8.830290  -5.267460  11.170200  20.711200  12.437900  30.297300 -26.078600 -11.489400  61.416500  94.378200 -59.689600  71.353800 -28.409900  30.476200  35.861500  49.983700   0.000490  -0.000713  26.629100   0.005583   0.003267  12.613100  -0.768229  -3.448680  10.338800   0.002257   0.000097   7.237170   0.001788   0.001276  88.999900  -3.537300  -0.064136 105.034000   0.003227   0.002232  78.775500  -0.000094  -0.003557  81.365900  -4.939770  -0.749476  81.398200   0.003556  -0.003570  61.048700   0.010593  -0.001040  88.984400 -10.002300  -0.177813 110.000000   0.000000  -0.001893  80.000000   0.002029   0.000029   2.808690  20.906500   5.123220   1.027590   0.026788   7.475890  -1.228050  -4.151610   2.695850   0.000000   0.000000   0.000000   4.548670  18.717600  -1.538000  -1.561060   2.683350  -5.660060  -0.327389  -4.708290  -0.439991  -0.000000   0.000000   0.000000
  0.239194  89.553700   1.681530  -4.225440 -17.577300  -2.459240   1.366890   9.279650   0.397090   2.722340  18.566100   0.577889   3.133300   2.463730  -0.134811   5.174040   4.951100   2.430660  -7.303670  -8.341540  -3.099570 -31.181100  19.010800 -44.314700  44.248800  -1.518180 -85.050100  46.669500  22.704700 -49.591800  49.752500  53.732600 -95.970900 -43.515000  -0.005347   0.000306 -17.931600  -0.003102  -0.000182  -1.984000   0.725004 -19.967000  -1.722910  -0.000058  -0.003640  -1.206040  -0.001937  -0.001933 -58.837500   1.051830  -0.633513 -58.839200  -0.000173   0.000227 -44.129400   0.000615  -0.001307 -54.799000   1.130770  -0.786483 -54.791300   0.001010  -0.001338 -41.095500   0.001243   0.000308 -60.763000  -8.746290   4.868180 -91.702900  -0.003578   0.003219 -61.074100  -0.000625  -0.002448   8.901550  -5.286340  11.271100  19.481600  14.278300  30.628500 -25.531600 -12.936100  60.291300  95.478500 -58.833000  72.720000 -28.887800  31.303700  36.395100  49.534900  -0.000685   0.000000  26.330200   0.004947   0.002936  12.049800  -0.715070  -3.355910   9.876680   0.001577   0.000531   6.913680   0.001331   0.001470  89.000100  -3.432140  -0.060616 104.299000   0.003100   0.001493  78.224400  -0.000476  -0.003555  80.652800  -4.932720  -0.811468  80.687600   0.004341  -0.003862  60.515800   0.010240  -0.001766  88.984400 -10.002000  -0.177892 110.000000   0.000000  -0.001852  80.000000   0.001988   0.000000   2.807150  20.934100   5.138280   1.030240   0.000539   7.441290  -1.218910  -4.113190   2.664560  -0.000000   0.000000   0.000000   4.561570  18.718200  -1.542000  -1.569170   2.761940  -5.666960  -0.341739  -4.734850  -0.483845  -0.000000   0.000000   0.000000
  0.244172  89.552700   1.661990  -4.201230 -17.608100  -2.398080   1.371900   9.303100   0.434037   2.726000  18.613700   0.651326   3.126230   2.393210  -0.130609   5.159170   4.809600   2.439380  -7.295070  -8.285150  -3.163270 -31.012700  18.780600 -44.365400  44.414000  -1.367050 -85.422900  46.792400  22.375500 -49.611200  48.639000  53.201000 -94.598300 -43.969800  -0.004064   0.000373 -18.386800  -0.002572   0.000128  -1.961450   0.692302 -19.217800  -1.697230  -0.000181  -0.003151  -1.188070  -0.001787  -0.001515 -58.631900   0.687161  -0.421199 -58.633200   0.001050  -0.000158 -43.975000   0.000996  -0.001235 -54.457700   0.782958  -0.572048 -54.356600   0.003682  -0.003386 -40.794100   0.003647   0.000349 -60.407200  -8.716800   4.920120 -91.173400  -0.000513   0.002709 -60.721500  -0.000307  -0.001312   8.980830  -5.372720  11.219100  19.248900  15.194500  30.710300 -25.712100 -13.287200  59.972800  95.041600 -58.088700  72.683600 -29.334400  31.975800  36.719200  49.162100  -0.001243  -0.000254  26.081900   0.004269   0.002564  11.434400  -0.636838  -3.132350   9.369720   0.000884   0.000991   6.558810   0.000861   0.001699  89.000300  -3.196300  -0.056507 103.780000   0.002992   0.000708  77.835300  -0.000862  -0.003543  80.088300  -4.925230  -0.860921  80.125200   0.005077  -0.004360  60.094000   0.009817  -0.002558  88.979500 -10.001600  -0.177936 110.000000   0.000000  -0.001814  80.000000   0.001947   0.000000   2.783020  20.914400   5.163230   1.051250   0.025212   7.401360  -1.210400  -4.101340   2.628980  -0.000000   0.000000   0.000000   4.574730  18.688800  -1.550370  -1.587790   2.848640  -5.679560  -0.353088  -4.767280  -0.529638  -0.000000   0.000000  -0.000000
  0.252042  89.551900   1.641550  -4.171360 -17.631300  -2.331240   1.382060   9.325210   0.458036   2.743150  18.658700   0.698598   3.105630   2.327780  -0.126251   5.125620   4.678620   2.503470  -7.293530  -8.232650  -3.227000 -30.853800  18.568500 -44.393000  44.245100  -1.263140 -85.691800  46.797900  21.989700 -49.513100  48.268800  53.038000 -94.150700 -44.196400  -0.002745   0.000843 -18.611900  -0.002173   0.000775  -1.934470   0.657963 -18.775800  -1.671550  -0.000425  -0.002642  -1.170090  -0.001600  -0.001066 -58.557000   0.548285  -0.336745 -58.558300   0.001401  -0.000540 -43.918800   0.001370  -0.001148 -54.204800   0.518470  -0.378195 -54.175700   0.004537  -0.004060 -40.639700   0.004423   0.000391 -60.252900  -8.704100   4.942420 -90.943900   0.001621   0.002166 -60.568600   0.000000  -0.000674   9.062280  -5.458400  11.167200  19.623100  15.505300  30.636100 -25.871000 -13.337600  59.927500  94.452000 -57.555300  72.510400 -29.570700  32.337000  36.906300  48.853000  -0.001495  -0.000610  25.876100   0.003531   0.002111  11.075700  -0.552359  -2.833280   9.073150   0.000113   0.001468   6.351210   0.000342   0.001951  89.000600  -2.885720  -0.051408 103.406000   0.002916  -0.000101  77.554600  -0.001249  -0.003505  79.597400  -4.918230  -0.904188  79.636100   0.005849  -0.004768  59.727100   0.009303  -0.003378  88.974600 -10.001300  -0.177950 110.000000   0.000000  -0.001776  80.000000   0.001908  -0.000000   2.754840  20.895000   5.180240   1.072300   0.049889   7.362540  -1.202790  -4.090660   2.593800   0.000000   0.000000   0.000000   4.584920  18.659400  -1.560490  -1.607790   2.923210  -5.695450  -0.360396  -4.796970  -0.574142  -0.000000   0.000000   0.000000
